<?xml version="1.0"?>
<svg xmlns="http://www.w3.org/2000/svg" xmlns:xlink="http://www.w3.org/1999/xlink" xmlns:svgjs="http://svgjs.com/svgjs" version="1.1" width="512" height="512" x="0" y="0" viewBox="0 0 501.265 501.265" style="enable-background:new 0 0 512 512" xml:space="preserve" class=""><g><g xmlns="http://www.w3.org/2000/svg"><path d="m232.297 28.195c95.796-2.17 114.427-7.469 178.213 69.84 28.645 47.869 8.258 108.235 9.63 161.012-.43 11.124 17.469 11.124 16.916-.157.802-39.445 8.089-79.228 5.206-119.129-1.196-28.189-11.042-49.849-31.346-69.579-16.755-18.646-32.581-38.966-55.67-50.858-34.348-16.529-73.793-13.556-110.757-15.044-101.236-6.199-197.725-24.004-192.909 113.313-.583 47.45 9.333 93.849 8.782 140.975-.777 10.024 14.779 12.433 16.764 2.284.904-4.226 1.543-8.389 2.064-12.518 8.734-62.028-13.521-145.311 16.994-200.354 36.021-30.894 91.824-18.019 136.113-19.785z" fill="#424242" data-original="#000000" style="" class=""/><path d="m378.841 375.943c-.505-25.611 38.082-36.558 54.245-19.22 4.087 4.449 5.209 10.2 5.181 16.303 1.559 14.387 24.108 11.19 21.69-3.031-3.629-43.534-64.545-52.375-89.66-21.573-27.692 39.504-1.582 74.818 42.886 77.716 13.324 2.733 32.324 5.904 30.627 22.862.865 24.801-66.022 35.676-63.148 7.415-10.078-40.009-51.467.955-16.886 31.469 33.362 25.297 101.521 8.099 103.076-38.663 1.866-63.188-91.758-23.781-88.011-73.278z" fill="#424242" data-original="#000000" style="" class=""/><path d="m218.861 381.084c-9.272-40.194 66.581-51.039 64.968-11.76-1.043 10.952 16.171 12.251 16.854 1.324 4.301-45.275-60.344-55.613-87.46-28.907-25.49 23.096-16.602 73.312 18.222 81.532 18.961 4.657 48.668-3.327 51.443 22.977.927 9.217-2.627 17.719-11.676 21.381-14.211 5.52-45.079 10.846-53.861-5.939-3.234-5.163-2.273-13.859-10.126-14.707-11.778-.961-10.765 13.867-8.6 21.746 15.467 51.668 117.596 39.075 113.824-18.568-6.924-79.787-85.419-22.1-93.588-69.079z" fill="#424242" data-original="#000000" style="" class=""/><path d="m133.041 372.646c8.567 11.35 26.193-2.46 17.251-13.501-14.769-19.723-39.052-33.693-64.341-29.454-53.402 8.986-58.502 76.173-45.658 118.581 6.716 24.183 26.487 46.889 52.952 48.742 11.657 2.002 23.417.573 34.181-4.951 15.429-7.432 37.81-37.401 13.788-47.258-25.622-5.026-12.541 29.333-43.537 26.495l.119.026c-40.218-1.637-45.455-56.071-40.996-87.375 6.079-43.466 56.978-49.302 76.241-11.305z" fill="#424242" data-original="#000000" style="" class=""/></g></g></svg>
