<svg xmlns="http://www.w3.org/2000/svg" xmlns:xlink="http://www.w3.org/1999/xlink" width="552.8" height="205.3" style=""><rect id="backgroundrect" width="100%" height="100%" x="0" y="0" fill="none" stroke="none" class="" style=""/><style>.st0{fill:#fff}.st1{clip-path:url(#SVGID_2_)}.st2{clip-path:url(#SVGID_4_)}.st3{clip-path:url(#SVGID_6_)}.st4{clip-path:url(#SVGID_8_)}.st5{fill:#fff;stroke:#424242;stroke-width:4;stroke-miterlimit:10}.st6{clip-path:url(#SVGID_8_)}.st6,.st7{fill:none;stroke:#424242;stroke-width:4;stroke-miterlimit:10}.st8,.st9{clip-path:url(#SVGID_10_)}.st9{fill:none;stroke:#424242;stroke-width:4;stroke-miterlimit:10}</style><title>rs_school_js</title><defs><ellipse id="SVGID_1_" transform="rotate(-37.000999450683594 420.4599914550782,67.8799972534179) " cx="420.5" cy="67.9000015258789" rx="63" ry="51.79999923706055"/></defs><clipPath id="SVGID_2_"><use xlink:href="#SVGID_1_" overflow="visible" id="svg_1"/></clipPath><g class="currentLayer" style=""><title>Layer 1</title><path d="M284.5379309892654,68 l26.3,-1.7000000000000002 c0.6000000000000001,4.3 1.7000000000000002,7.5 3.5,9.8 c2.9,3.6 6.9,5.4 12.2,5.4 c3.9,0 7,-0.9 9.1,-2.8 c2,-1.5 3.2,-3.9 3.2,-6.4 c0,-2.4 -1.1,-4.7 -3,-6.2 c-2,-1.8 -6.7,-3.6 -14.1,-5.2 c-12.1,-2.7 -20.8,-6.3 -25.9,-10.9 c-5.1,-4.3 -8,-10.6 -7.8,-17.3 c0,-4.6 1.4,-9.2 4,-13 c3,-4.3 7.1,-7.7 12,-9.6 c5.3,-2.3 12.7,-3.5 22,-3.5 c11.4,0 20.1,2.1 26.1,6.4 c6,4.2 9.6,11 10.7,20.3 l-26,1.5 c-0.7000000000000001,-4 -2.1,-6.9 -4.4,-8.8 s-5.3,-2.8 -9.2,-2.8 c-3.2,0 -5.6,0.7000000000000001 -7.2,2 c-1.5,1.2 -2.5,3 -2.4,5 c0,1.5 0.8,2.9 2,3.8 c1.3,1.2 4.4,2.3 9.3,3.3 c12.1,2.6 20.7,5.2 26,7.9 c5.3,2.7 9.1,6 11.4,9.9 c2.4,4 3.6,8.6 3.5,13.3 c0,5.6 -1.6,11.2 -4.8,15.9 c-3.3,4.9 -7.9,8.7 -13.3,11 c-5.7,2.5 -12.9,3.8 -21.5,3.8 c-15.2,0 -25.7,-2.9 -31.6,-8.8 S285.23793098926546,77 284.5379309892654,68 zM5.437930989265442,97.6 V8.2 h46.1 c8.5,0 15.1,0.7000000000000001 19.6,2.2 c4.4,1.4 8.3,4.3 10.9,8.2 c2.9,4.3 4.3,9.3 4.2,14.5 c0.30000000000000004,8.8 -4.2,17.2 -11.9,21.6 c-3,1.7000000000000002 -6.3,2.9 -9.7,3.5 c2.5,0.7000000000000001 5,1.9 7.2,3.3 c1.7000000000000002,1.4 3.1,3 4.4,4.7 c1.5,1.7000000000000002 2.8,3.6 3.9,5.6 l13.4,25.9 H62.13793098926544 L47.337930989265445,70.2 c-1.9,-3.5 -3.5,-5.8 -5,-6.9 c-2,-1.4 -4.4,-2.1 -6.8,-2.1 H33.13793098926544 v36.3 H5.437930989265442 zM33.13793098926544,44.4 h11.7 c2.5,-0.2 4.9,-0.6000000000000001 7.3,-1.2 c1.8,-0.30000000000000004 3.4,-1.3 4.5,-2.8 c2.7,-3.6 2.3,-8.7 -1,-11.8 c-1.8,-1.5 -5.3,-2.3 -10.3,-2.3 H33.13793098926544 v18.1 zM-0.8620690107345581,174.2 l26.3,-1.7000000000000002 c0.6000000000000001,4.3 1.7000000000000002,7.5 3.5,9.8 c2.8,3.6 6.9,5.5 12.2,5.5 c3.9,0 7,-0.9 9.1,-2.8 c2,-1.6 3.2,-3.9 3.2,-6.4 c0,-2.4 -1.1,-4.7 -3,-6.2 c-2,-1.8 -6.7,-3.6 -14.2,-5.2 c-12.1,-2.7 -20.8,-6.3 -25.9,-10.9 c-5.1,-4.3 -8,-10.6 -7.8,-17.3 c0,-4.6 1.4,-9.2 4,-13 c3,-4.3 7.1,-7.7 12,-9.6 c5.3,-2.3 12.7,-3.5 22,-3.5 c11.4,0 20.1,2.1 26.1,6.4 s9.5,11 10.6,20.3 l-26,1.5 c-0.7000000000000001,-4 -2.1,-6.9 -4.4,-8.8 c-2.2,-1.9 -5.3,-2.8 -9.2,-2.7 c-3.2,0 -5.6,0.7000000000000001 -7.2,2.1 c-1.6,1.2 -2.5,3 -2.4,5 c0,1.5 0.8,2.9 2,3.8 c1.3,1.2 4.4,2.3 9.3,3.3 c12.1,2.6 20.7,5.2 26,7.9 c5.3,2.7 9.1,6 11.4,9.9 c2.4,4 3.6,8.6 3.6,13.2 c0,5.6 -1.7000000000000002,11.1 -4.8,15.8 c-3.3,4.9 -7.9,8.7 -13.3,11 c-5.7,2.5 -12.9,3.8 -21.5,3.8 c-15.2,0 -25.7,-2.9 -31.6,-8.8 c-5.9,-6 -9.2,-13.4 -10,-22.4 z" id="svg_2" class="" fill="#424242" fill-opacity="1"/><path d="M132.13793098926544,167.2 l24.2,7.3 c-1.3,6.1 -4,11.9 -7.7,17 c-3.4,4.5 -7.9,8 -13,10.3 c-5.2,2.3 -11.8,3.5 -19.8,3.5 c-9.7,0 -17.7,-1.4 -23.8,-4.2 c-6.2,-2.8 -11.5,-7.8 -16,-14.9 c-4.5,-7.1 -6.7,-16.2 -6.7,-27.3 c0,-14.8 3.9,-26.2 11.8,-34.1 s19,-11.9 33.4,-11.9 c11.3,0 20.1,2.3 26.6,6.8 c6.4,4.6 11.2,11.6 14.4,21 l-24.4,5.4 c-0.6000000000000001,-2.1 -1.5,-4.2 -2.7,-6 c-1.5,-2.1 -3.4,-3.7 -5.7,-4.9 c-2.3,-1.2 -4.9,-1.7000000000000002 -7.5,-1.7000000000000002 c-6.3,0 -11.1,2.5 -14.4,7.6 c-2.5,3.7 -3.8,9.6 -3.8,17.6 c0,9.9 1.5,16.7 4.5,20.4 c3,3.7 7.2,5.5 12.7,5.5 c5.3,0 9.3,-1.5 12,-4.4 c2.7,-3.1 4.7,-7.4 5.9,-13 zm56.5,-52.8 h27.6 v31.3 h30.2 v-31.3 h27.8 v89.4 h-27.8 v-36.2 h-30.2 v36.2 h-27.6 v-89.4 z" id="svg_3" class="" fill="#424242" fill-opacity="1"/><path d="M271.3,159.1 c0,-14.6 4.1,-26 12.2,-34.1 c8.1,-8.1 19.5,-12.2 34,-12.2 c14.9,0 26.3,4 34.4,12 S364,144 364,158.4 c0,10.5 -1.8,19 -5.3,25.7 c-3.4,6.6 -8.7,12 -15.2,15.6 c-6.7,3.7 -15,5.6 -24.9,5.6 c-10.1,0 -18.4,-1.6 -25,-4.8 c-6.8,-3.4 -12.4,-8.7 -16.1,-15.2 c-4.1,-7 -6.2,-15.7 -6.2,-26.2 zm27.6,0.1 c0,9 1.7000000000000002,15.5 5,19.5 c3.3,3.9 7.9,5.9 13.7,5.9 c5.9,0 10.5,-1.9 13.8,-5.8 s4.9,-10.8 4.9,-20.8 c0,-8.4 -1.7000000000000002,-14.6 -5.1,-18.4 c-3.4,-3.9 -8,-5.8 -13.8,-5.8 c-5.1,-0.2 -10,2 -13.4,5.9 c-3.4,3.9 -5.1,10.4 -5.1,19.5 zm93.4,-0.1 c0,-14.6 4.1,-26 12.2,-34.1 c8.1,-8.1 19.5,-12.2 34,-12.2 c14.9,0 26.4,4 34.4,12 S485,144 485,158.4 c0,10.5 -1.8,19 -5.3,25.7 c-3.4,6.6 -8.7,12 -15.2,15.6 c-6.7,3.7 -15,5.6 -24.9,5.6 c-10.1,0 -18.4,-1.6 -25,-4.8 c-6.8,-3.4 -12.4,-8.7 -16.1,-15.2 c-4.1,-7 -6.2,-15.7 -6.2,-26.2 zm27.6,0.1 c0,9 1.7000000000000002,15.5 5,19.5 c3.3,3.9 7.9,5.9 13.7,5.9 c5.9,0 10.5,-1.9 13.8,-5.8 c3.3,-3.9 4.9,-10.8 4.9,-20.8 c0,-8.4 -1.7000000000000002,-14.6 -5.1,-18.4 c-3.4,-3.9 -8,-5.8 -13.8,-5.8 c-5.1,-0.2 -10.1,2 -13.4,5.9 c-3.4,3.9 -5.1,10.4 -5.1,19.5 z" id="svg_4" class="" fill="#424242" fill-opacity="1"/><path d="M482.1 114.4h27.6v67.4h43.1v22H482v-89.4z" id="svg_5" class="" fill="#424242" fill-opacity="1"/><ellipse transform="rotate(-37.000999450683594 420.4599914550782,67.8799972534179) " class="st0" cx="420.5" cy="67.9000015258789" rx="63" ry="51.79999923706055" id="svg_6"/><g class="st1" id="svg_7" fill="#424242" fill-opacity="1"><path transform="rotate(-37.000999450683594 420.82000732421875,68.35299682617185) " class="st0" d="M330.9-14.2h179.8v165.1H330.9z" id="svg_8" fill="#424242" fill-opacity="1"/><g id="Layer_2_1_" fill="#424242" fill-opacity="1"><defs><path id="SVGID_3_" transform="rotate(-37.000999450683594 420.82000732421875,68.35299682617185) " d="M330.9-14.2h179.8v165.1H330.9z" fill="#424242" fill-opacity="1"/></defs><clipPath id="SVGID_4_"><use xlink:href="#SVGID_3_" overflow="visible" id="svg_9"/></clipPath><g id="Layer_1-2" class="st2" fill="#424242" fill-opacity="1"><ellipse transform="rotate(-37.000999450683594 420.4599914550782,67.8799972534179) " class="st0" cx="420.5" cy="67.9000015258789" rx="63" ry="51.79999923706055" id="svg_10" fill="#424242" fill-opacity="1"/><defs><ellipse id="SVGID_5_" transform="rotate(-37.000999450683594 420.4599914550782,67.8799972534179) " cx="420.5" cy="67.9000015258789" rx="63" ry="51.79999923706055" fill="#424242" fill-opacity="1"/></defs><clipPath id="SVGID_6_"><use xlink:href="#SVGID_5_" overflow="visible" id="svg_11"/></clipPath><g class="st3" id="svg_12" fill="#424242" fill-opacity="1"><path transform="rotate(-37 420.79901123046875,68.8020019531249) " class="st0" d="M357.8 17h125.9v103.7H357.8z" id="svg_13" fill="#424242" fill-opacity="1"/><defs><path id="SVGID_7_" transform="rotate(-37 420.79901123046875,68.8020019531249) " d="M357.8 17h125.9v103.7H357.8z" fill="#424242" fill-opacity="1"/></defs><clipPath id="SVGID_8_"><use xlink:href="#SVGID_7_" overflow="visible" id="svg_14"/></clipPath><g class="st4" id="svg_15" fill="#424242" fill-opacity="1"><ellipse transform="rotate(-37.000999450683594 420.4599914550782,67.8799972534179) " class="st5" cx="420.5" cy="67.9000015258789" rx="63" ry="51.79999923706055" id="svg_16" fill="#424242" fill-opacity="1"/></g><path transform="rotate(-37 420.79901123046875,68.8020019531249) " class="st6" d="M357.8 17h125.9v103.7H357.8z" id="svg_17" fill="#424242" fill-opacity="1"/><ellipse transform="rotate(-37.000999450683594 420.4599914550782,67.8799972534179) " class="st7" cx="420.5" cy="67.9000015258789" rx="63" ry="51.79999923706055" id="svg_18" fill="#424242" fill-opacity="1"/><path transform="rotate(-37 420.79901123046875,68.8020019531249) " class="st0" d="M357.8 17h125.9v103.7H357.8z" id="svg_19" fill="#424242" fill-opacity="1"/><defs><path id="SVGID_9_" transform="rotate(-37 420.79901123046875,68.8020019531249) " d="M357.8 17h125.9v103.7H357.8z" fill="#424242" fill-opacity="1"/></defs><clipPath id="SVGID_10_"><use xlink:href="#SVGID_9_" overflow="visible" id="svg_20"/></clipPath><g class="st8" id="svg_21" fill="#424242" fill-opacity="1"><ellipse transform="rotate(-37.000999450683594 420.4599914550782,67.8799972534179) " class="st5" cx="420.5" cy="67.9000015258789" rx="63" ry="51.79999923706055" id="svg_22" fill="#424242" fill-opacity="1"/></g><path transform="rotate(-37 420.79901123046875,68.8020019531249) " class="st9" d="M357.8 17h125.9v103.7H357.8z" id="svg_23" fill="#424242" fill-opacity="1"/><path transform="rotate(-37.000999450683594 420.82000732421875,68.35299682617185) " class="st7" d="M330.9-14.2h179.8v165.1H330.9z" id="svg_24" fill="#424242" fill-opacity="1"/></g><ellipse transform="rotate(-37.000999450683594 420.4599914550782,67.8799972534179) " class="st7" cx="420.5" cy="67.9000015258789" rx="63" ry="51.79999923706055" id="svg_25" fill="#424242" fill-opacity="1"/><path d="M392.4 61.3l10-7 12.3 17.5c2.1 2.8 3.7 5.8 4.9 9.1.7 2.5.5 5.2-.5 7.6-1.3 3-3.4 5.5-6.2 7.3-3.3 2.3-6.1 3.6-8.5 4-2.3.4-4.7 0-6.9-1-2.4-1.2-4.5-2.9-6.1-5.1l8.6-8c.7 1.1 1.6 2.1 2.6 2.9.7.5 1.5.8 2.4.8.7 0 1.4-.3 1.9-.7 1-.6 1.7-1.8 1.6-3-.3-1.7-1-3.4-2.1-4.7l-14-19.7zm30 11.1l9.1-7.2c1 1.2 2.3 2.1 3.7 2.6 2 .6 4.1.2 5.8-1.1 1.2-.8 2.2-1.9 2.6-3.3.6-1.8-.4-3.8-2.2-4.4-.3-.1-.6-.2-.9-.2-1.2-.1-3.3.4-6.4 1.7-5.1 2.1-9.1 2.9-12.1 2.6-2.9-.3-5.6-1.8-7.2-4.3-1.2-1.7-1.8-3.7-1.9-5.7 0-2.3.6-4.6 1.9-6.5 1.9-2.7 4.2-5 7-6.8 4.2-2.9 7.9-4.3 11.1-4.3 3.2 0 6.2 1.5 9 4.6l-9 7.1c-1.8-2.3-5.2-2.8-7.5-1l-.3.3c-1 .6-1.7 1.5-2.1 2.6-.3.8-.1 1.7.4 2.4.4.5 1 .9 1.7.9.8.1 2.2-.3 4.2-1.2 5-2.1 8.8-3.3 11.4-3.7 2.2-.4 4.5-.2 6.6.7 1.9.8 3.5 2.2 4.6 3.9 1.4 2 2.2 4.4 2.3 6.9.1 2.6-.6 5.1-2 7.3-1.8 2.7-4.1 5-6.8 6.8-5.5 3.8-10 5.4-13.6 4.8-3.9-.6-7.1-2.6-9.4-5.5z" id="svg_26" fill="#424242" fill-opacity="1"/></g></g></g></g></svg>